<svg width="33" height="12" viewBox="0 0 44 16" fill="none" xmlns="http://www.w3.org/2000/svg">
  <path
    d="M1.36963 8.12207C1.36963 8.02181 1.40544 7.93587 1.47705 7.86426C1.54867 7.79264 1.63281 7.75684 1.72949 7.75684H5.36035V4.13135C5.36035 4.03467 5.39437 3.95052 5.4624 3.87891C5.53402 3.80729 5.61995 3.77148 5.72021 3.77148C5.82048 3.77148 5.90641 3.80729 5.97803 3.87891C6.04964 3.95052 6.08545 4.03467 6.08545 4.13135V7.75684H9.70557C9.80583 7.75684 9.89176 7.79264 9.96338 7.86426C10.035 7.93587 10.0708 8.02181 10.0708 8.12207C10.0708 8.22233 10.035 8.30827 9.96338 8.37988C9.89176 8.44792 9.80583 8.48193 9.70557 8.48193H6.08545V12.1128C6.08545 12.2095 6.04964 12.2936 5.97803 12.3652C5.90641 12.4368 5.82048 12.4727 5.72021 12.4727C5.61995 12.4727 5.53402 12.4368 5.4624 12.3652C5.39437 12.2936 5.36035 12.2095 5.36035 12.1128V8.48193H1.72949C1.63281 8.48193 1.54867 8.44792 1.47705 8.37988C1.40544 8.30827 1.36963 8.22233 1.36963 8.12207Z"
    fill="#222222" fill-opacity="0.5" />
  <path
    d="M19.3912 13C18.9275 13 18.5789 12.8848 18.3456 12.6544C18.1152 12.427 18 12.0843 18 11.6265V7.2047C18 6.74686 18.1152 6.40422 18.3456 6.17678C18.5789 5.94639 18.9275 5.83119 19.3912 5.83119H20.6274V6.54453H19.4001C19.1786 6.54453 19.0087 6.6036 18.8906 6.72175C18.7724 6.83991 18.7133 7.01418 18.7133 7.24457V11.5866C18.7133 11.817 18.7724 11.9913 18.8906 12.1094C19.0087 12.2276 19.1786 12.2867 19.4001 12.2867H24.4599C24.6785 12.2867 24.8483 12.2276 24.9694 12.1094C25.0905 11.9913 25.1511 11.817 25.1511 11.5866V7.24457C25.1511 7.01418 25.0905 6.83991 24.9694 6.72175C24.8483 6.6036 24.6785 6.54453 24.4599 6.54453H23.237V5.83119H24.4732C24.9369 5.83119 25.284 5.94639 25.5144 6.17678C25.7477 6.40718 25.8644 6.74982 25.8644 7.2047V11.6265C25.8644 12.0814 25.7477 12.424 25.5144 12.6544C25.284 12.8848 24.9369 13 24.4732 13H19.3912ZM21.93 9.53079C21.8355 9.53079 21.7528 9.49682 21.6819 9.42889C21.6139 9.36095 21.58 9.27972 21.58 9.1852V4.63491L21.6066 3.97031L21.3053 4.28489L20.6362 5.00266C20.5742 5.07355 20.493 5.10899 20.3926 5.10899C20.298 5.10899 20.2212 5.07946 20.1622 5.02038C20.1031 4.96131 20.0735 4.88598 20.0735 4.79442C20.0735 4.71171 20.1075 4.63491 20.1755 4.56402L21.673 3.11963C21.7203 3.07532 21.7631 3.04431 21.8015 3.02658C21.8429 3.00886 21.8857 3 21.93 3C21.9773 3 22.0201 3.00886 22.0585 3.02658C22.0998 3.04431 22.1427 3.07532 22.187 3.11963L23.6845 4.56402C23.7554 4.63491 23.7909 4.71171 23.7909 4.79442C23.7909 4.88598 23.7599 4.96131 23.6978 5.02038C23.6358 5.07946 23.559 5.10899 23.4674 5.10899C23.37 5.10899 23.2902 5.07355 23.2282 5.00266L22.5547 4.28489L22.2579 3.97031L22.2844 4.63491V9.1852C22.2844 9.27972 22.249 9.36095 22.1781 9.42889C22.1102 9.49682 22.0275 9.53079 21.93 9.53079Z"
    fill="#222222" fill-opacity="0.5" />
  <path
    d="M36.5309 10.6111H35.9143C35.4724 10.6111 35.1143 10.2529 35.1143 9.81111V4.8C35.1143 4.35817 35.4724 4 35.9143 4H40.9254C41.3672 4 41.7254 4.35817 41.7254 4.8V5.41667"
    stroke="#222222" stroke-opacity="0.5" stroke-width="0.7" />
  <rect x="37.0029" y="5.88867" width="6.61111" height="6.61111" rx="0.8" stroke="#222222" stroke-opacity="0.5"
    stroke-width="0.7" />
</svg>