<svg width="32" height="9" viewBox="0 0 65 12" fill="none" xmlns="http://www.w3.org/2000/svg">
  <circle cx="4" cy="6" r="4" fill="#EE6B60" />
  <circle cx="18" cy="6" r="4" fill="#F5BE4F" />
  <circle cx="32" cy="6" r="4" fill="#62C555" />
  <g clip-path="url(#clip0_11278_4656)">
    <mask id="mask0_11278_4656" style="mask-type:alpha" maskUnits="userSpaceOnUse" x="29" y="0" width="24" height="24">
      <rect width="24" height="24" transform="matrix(-1 0 0 1 53 0)" fill="#D9D9D9" />
    </mask>
    <g mask="url(#mask0_11278_4656)">
      <path
        d="M46.5271 6.00025L48.5637 3.96375C48.6329 3.8945 48.6683 3.80746 48.67 3.70263C48.6716 3.59788 48.6362 3.50925 48.5637 3.43675C48.4912 3.36433 48.4034 3.32812 48.3002 3.32812C48.1971 3.32812 48.1092 3.36433 48.0367 3.43675L45.7896 5.68388C45.7429 5.73071 45.7099 5.78008 45.6906 5.832C45.6714 5.88392 45.6617 5.94 45.6617 6.00025C45.6617 6.0605 45.6714 6.11658 45.6906 6.1685C45.7099 6.22042 45.7429 6.26979 45.7896 6.31663L48.0367 8.56375C48.106 8.63292 48.193 8.66833 48.2979 8.67C48.4026 8.67158 48.4912 8.63617 48.5637 8.56375C48.6362 8.49125 48.6724 8.40342 48.6724 8.30025C48.6724 8.19708 48.6362 8.10925 48.5637 8.03675L46.5271 6.00025Z"
        fill="#222222" fill-opacity="0.5" />
    </g>
  </g>
  <g clip-path="url(#clip1_11278_4656)">
    <mask id="mask1_11278_4656" style="mask-type:alpha" maskUnits="userSpaceOnUse" x="53" y="0" width="24" height="24">
      <rect x="53" width="24" height="24" fill="#D9D9D9" />
    </mask>
    <g mask="url(#mask1_11278_4656)">
      <path
        d="M59.4729 6.00025L57.4363 3.96375C57.3671 3.8945 57.3317 3.80746 57.33 3.70263C57.3284 3.59788 57.3638 3.50925 57.4363 3.43675C57.5088 3.36433 57.5966 3.32812 57.6998 3.32812C57.8029 3.32812 57.8908 3.36433 57.9633 3.43675L60.2104 5.68388C60.2571 5.73071 60.2901 5.78008 60.3094 5.832C60.3286 5.88392 60.3383 5.94 60.3383 6.00025C60.3383 6.0605 60.3286 6.11658 60.3094 6.1685C60.2901 6.22042 60.2571 6.26979 60.2104 6.31663L57.9633 8.56375C57.894 8.63292 57.807 8.66833 57.7021 8.67C57.5974 8.67158 57.5088 8.63617 57.4363 8.56375C57.3638 8.49125 57.3276 8.40342 57.3276 8.30025C57.3276 8.19708 57.3638 8.10925 57.4363 8.03675L59.4729 6.00025Z"
        fill="#222222" fill-opacity="0.3" />
    </g>
  </g>
  <defs>
    <clipPath id="clip0_11278_4656">
      <rect width="12" height="12" fill="white" transform="matrix(-1 0 0 1 53 0)" />
    </clipPath>
    <clipPath id="clip1_11278_4656">
      <rect width="12" height="12" fill="white" transform="translate(53)" />
    </clipPath>
  </defs>
</svg>