<svg width="135" height="13.5" viewBox="0 0 180 19" fill="none" xmlns="http://www.w3.org/2000/svg">
  <rect width="180" height="18.4971" rx="3" fill="#ECECEC" />
  <rect x="0.25" y="0.25" width="179.5" height="17.9971" rx="2.75" stroke="#222222" stroke-opacity="0.05"
    stroke-width="0.5" />
  <path
    d="M8 8.59215C8 8.23584 8.06681 7.90069 8.20042 7.58669C8.33627 7.27269 8.52333 6.99766 8.76161 6.76161C8.99989 6.52333 9.27492 6.33738 9.58669 6.20376C9.90069 6.06792 10.2358 6 10.5921 6C10.9485 6 11.2825 6.06792 11.5943 6.20376C11.9083 6.33738 12.1844 6.52333 12.4227 6.76161C12.661 6.99766 12.8469 7.27269 12.9805 7.58669C13.1164 7.90069 13.1843 8.23584 13.1843 8.59215C13.1843 8.89724 13.1331 9.18785 13.0306 9.46399C12.9304 9.74013 12.7912 9.98732 12.6131 10.2056L14.3434 11.9492C14.3746 11.9782 14.398 12.0116 14.4136 12.0495C14.4291 12.0873 14.4369 12.1285 14.4369 12.1731C14.4369 12.231 14.4236 12.2844 14.3969 12.3334C14.3701 12.3846 14.3323 12.4247 14.2833 12.4536C14.2365 12.4826 14.182 12.4971 14.1196 12.4971C14.0751 12.4971 14.0328 12.4882 13.9927 12.4703C13.9548 12.4548 13.9203 12.4325 13.8891 12.4035L12.1488 10.6565C11.9328 10.8213 11.6923 10.9505 11.4272 11.044C11.1622 11.1375 10.8839 11.1843 10.5921 11.1843C10.2358 11.1843 9.90069 11.1175 9.58669 10.9839C9.27492 10.848 8.99989 10.661 8.76161 10.4227C8.52333 10.1844 8.33627 9.90938 8.20042 9.59761C8.06681 9.28361 8 8.94846 8 8.59215ZM8.43425 8.59215C8.43425 8.88833 8.48992 9.16781 8.60127 9.43059C8.71262 9.69114 8.86739 9.92051 9.06559 10.1187C9.26378 10.3147 9.49316 10.4694 9.75371 10.583C10.0143 10.6944 10.2937 10.75 10.5921 10.75C10.8906 10.75 11.17 10.6944 11.4306 10.583C11.6911 10.4694 11.9194 10.3147 12.1154 10.1187C12.3136 9.92051 12.4683 9.69114 12.5797 9.43059C12.6933 9.16781 12.75 8.88833 12.75 8.59215C12.75 8.29374 12.6933 8.01426 12.5797 7.75371C12.4683 7.49316 12.3136 7.26378 12.1154 7.06559C11.9194 6.86739 11.6911 6.71262 11.4306 6.60127C11.17 6.4877 10.8906 6.43091 10.5921 6.43091C10.2937 6.43091 10.0143 6.4877 9.75371 6.60127C9.49316 6.71262 9.26378 6.86739 9.06559 7.06559C8.86739 7.26378 8.71262 7.49316 8.60127 7.75371C8.48992 8.01426 8.43425 8.29374 8.43425 8.59215Z"
    fill="#222222" fill-opacity="0.5" />
</svg>