<svg width="645" height="448" viewBox="0 0 645 448" fill="none" xmlns="http://www.w3.org/2000/svg">
<g >
<rect width="645" height="448" fill="white"/>
<g >
<g >
<g >
<rect x="133.928" y="190.625" width="46" height="16" rx="4" fill="#EFEFEF"/>
<path d="M133.928 222.75C133.928 217.803 137.939 213.792 142.886 213.792H614.542C619.49 213.792 623.501 217.803 623.501 222.75V430.834C623.501 435.781 619.49 439.792 614.542 439.792H142.886C137.939 439.792 133.928 435.781 133.928 430.834V222.75Z" fill="#F7F7F7"/>
<path d="M134.428 222.75C134.428 218.079 138.215 214.292 142.886 214.292H614.542C619.214 214.292 623.001 218.079 623.001 222.75V430.834C623.001 435.505 619.214 439.292 614.542 439.292H142.886C138.215 439.292 134.428 435.505 134.428 430.834V222.75Z" stroke="#222222" stroke-opacity="0.05"/>
<rect x="144.678" y="226.334" width="30.0104" height="7.16667" rx="1.79167" fill="#EFEFEF"/>
<path fill-rule="evenodd" clip-rule="evenodd" d="M604.24 229.021C603.745 229.021 603.344 229.423 603.344 229.917C603.344 230.412 603.745 230.813 604.24 230.813C604.734 230.813 605.135 230.412 605.135 229.917C605.135 229.423 604.734 229.021 604.24 229.021ZM606.479 229.917C606.479 229.423 606.88 229.021 607.375 229.021C607.87 229.021 608.271 229.423 608.271 229.917C608.271 230.412 607.87 230.813 607.375 230.813C606.88 230.813 606.479 230.412 606.479 229.917ZM609.615 229.917C609.615 229.423 610.016 229.021 610.51 229.021C611.005 229.021 611.406 229.423 611.406 229.917C611.406 230.412 611.005 230.813 610.51 230.813C610.016 230.813 609.615 230.412 609.615 229.917Z" fill="#EFEFEF"/>
<rect x="144.678" y="242.459" width="38.5208" height="15.6771" rx="3.58333" fill="#EFEFEF"/>
<rect opacity="0.3" x="186.781" y="250.97" width="20.1562" height="7.16667" rx="1.79167" fill="#DCDCDC"/>
<path d="M152.326 278.539C152.101 278.539 151.889 278.5 151.691 278.422C151.493 278.341 151.32 278.226 151.173 278.079C151.029 277.927 150.924 277.751 150.858 277.549L151.324 277.351C151.406 277.564 151.538 277.731 151.72 277.852C151.907 277.968 152.108 278.026 152.326 278.026C152.504 278.026 152.662 277.987 152.797 277.91C152.937 277.828 153.046 277.718 153.124 277.578C153.201 277.434 153.24 277.275 153.24 277.1C153.24 276.918 153.199 276.757 153.118 276.617C153.04 276.477 152.933 276.369 152.797 276.291C152.662 276.209 152.506 276.169 152.332 276.169C152.153 276.169 151.99 276.209 151.843 276.291C151.695 276.372 151.588 276.475 151.522 276.6L151.062 276.501L151.394 274.131H153.642V274.626H151.61L151.831 274.404L151.575 276.244L151.377 276.128C151.505 275.965 151.654 275.848 151.825 275.779C152 275.705 152.188 275.668 152.39 275.668C152.673 275.668 152.922 275.732 153.135 275.86C153.349 275.988 153.516 276.159 153.636 276.372C153.756 276.586 153.816 276.829 153.816 277.1C153.816 277.372 153.75 277.617 153.619 277.834C153.49 278.051 153.314 278.224 153.089 278.352C152.867 278.477 152.613 278.539 152.326 278.539ZM156.281 278.539C155.935 278.539 155.633 278.445 155.372 278.259C155.116 278.069 154.916 277.807 154.773 277.473C154.629 277.135 154.557 276.743 154.557 276.297C154.557 275.85 154.629 275.46 154.773 275.126C154.916 274.789 155.116 274.527 155.372 274.34C155.629 274.154 155.929 274.061 156.275 274.061C156.62 274.061 156.921 274.154 157.178 274.34C157.434 274.527 157.634 274.789 157.777 275.126C157.925 275.46 157.999 275.85 157.999 276.297C157.999 276.743 157.927 277.135 157.783 277.473C157.639 277.811 157.438 278.073 157.178 278.259C156.921 278.445 156.622 278.539 156.281 278.539ZM156.281 278.009C156.514 278.009 156.716 277.939 156.886 277.799C157.057 277.655 157.189 277.456 157.282 277.199C157.379 276.943 157.428 276.642 157.428 276.297C157.428 275.951 157.379 275.65 157.282 275.394C157.189 275.138 157.055 274.94 156.881 274.8C156.71 274.661 156.508 274.591 156.275 274.591C156.042 274.591 155.84 274.661 155.669 274.8C155.499 274.94 155.365 275.138 155.268 275.394C155.174 275.65 155.128 275.951 155.128 276.297C155.128 276.638 155.174 276.937 155.268 277.194C155.365 277.45 155.499 277.65 155.669 277.793C155.844 277.937 156.048 278.009 156.281 278.009ZM160.494 278.539C160.149 278.539 159.846 278.445 159.586 278.259C159.33 278.069 159.13 277.807 158.986 277.473C158.843 277.135 158.771 276.743 158.771 276.297C158.771 275.85 158.843 275.46 158.986 275.126C159.13 274.789 159.33 274.527 159.586 274.34C159.842 274.154 160.143 274.061 160.489 274.061C160.834 274.061 161.135 274.154 161.391 274.34C161.647 274.527 161.847 274.789 161.991 275.126C162.138 275.46 162.212 275.85 162.212 276.297C162.212 276.743 162.14 277.135 161.997 277.473C161.853 277.811 161.651 278.073 161.391 278.259C161.135 278.445 160.836 278.539 160.494 278.539ZM160.494 278.009C160.727 278.009 160.929 277.939 161.1 277.799C161.271 277.655 161.403 277.456 161.496 277.199C161.593 276.943 161.642 276.642 161.642 276.297C161.642 275.951 161.593 275.65 161.496 275.394C161.403 275.138 161.269 274.94 161.094 274.8C160.923 274.661 160.722 274.591 160.489 274.591C160.256 274.591 160.054 274.661 159.883 274.8C159.712 274.94 159.578 275.138 159.481 275.394C159.388 275.65 159.342 275.951 159.342 276.297C159.342 276.638 159.388 276.937 159.481 277.194C159.578 277.45 159.712 277.65 159.883 277.793C160.058 277.937 160.262 278.009 160.494 278.009Z" fill="#EFEFEF"/>
<path d="M166.178 276.469H612.527" stroke="#EFEFEF" stroke-width="0.895833"/>
<path d="M152.835 313.081V312.08H150.704V311.608L152.824 308.743H153.371V311.608H153.936V312.08H153.371V313.081H152.835ZM151.135 311.812L151.054 311.608H152.835V309.22L153.004 309.267L151.135 311.812ZM156.281 313.151C155.935 313.151 155.633 313.058 155.372 312.871C155.116 312.681 154.916 312.419 154.773 312.085C154.629 311.748 154.557 311.356 154.557 310.909C154.557 310.463 154.629 310.073 154.773 309.739C154.916 309.401 155.116 309.139 155.372 308.953C155.629 308.766 155.929 308.673 156.275 308.673C156.62 308.673 156.921 308.766 157.178 308.953C157.434 309.139 157.634 309.401 157.777 309.739C157.925 310.073 157.999 310.463 157.999 310.909C157.999 311.356 157.927 311.748 157.783 312.085C157.639 312.423 157.438 312.685 157.178 312.871C156.921 313.058 156.622 313.151 156.281 313.151ZM156.281 312.621C156.514 312.621 156.716 312.551 156.886 312.411C157.057 312.268 157.189 312.068 157.282 311.812C157.379 311.555 157.428 311.255 157.428 310.909C157.428 310.564 157.379 310.263 157.282 310.007C157.189 309.75 157.055 309.552 156.881 309.413C156.71 309.273 156.508 309.203 156.275 309.203C156.042 309.203 155.84 309.273 155.669 309.413C155.499 309.552 155.365 309.75 155.268 310.007C155.174 310.263 155.128 310.564 155.128 310.909C155.128 311.251 155.174 311.55 155.268 311.806C155.365 312.062 155.499 312.262 155.669 312.406C155.844 312.549 156.048 312.621 156.281 312.621ZM160.494 313.151C160.149 313.151 159.846 313.058 159.586 312.871C159.33 312.681 159.13 312.419 158.986 312.085C158.843 311.748 158.771 311.356 158.771 310.909C158.771 310.463 158.843 310.073 158.986 309.739C159.13 309.401 159.33 309.139 159.586 308.953C159.842 308.766 160.143 308.673 160.489 308.673C160.834 308.673 161.135 308.766 161.391 308.953C161.647 309.139 161.847 309.401 161.991 309.739C162.138 310.073 162.212 310.463 162.212 310.909C162.212 311.356 162.14 311.748 161.997 312.085C161.853 312.423 161.651 312.685 161.391 312.871C161.135 313.058 160.836 313.151 160.494 313.151ZM160.494 312.621C160.727 312.621 160.929 312.551 161.1 312.411C161.271 312.268 161.403 312.068 161.496 311.812C161.593 311.555 161.642 311.255 161.642 310.909C161.642 310.564 161.593 310.263 161.496 310.007C161.403 309.75 161.269 309.552 161.094 309.413C160.923 309.273 160.722 309.203 160.489 309.203C160.256 309.203 160.054 309.273 159.883 309.413C159.712 309.552 159.578 309.75 159.481 310.007C159.388 310.263 159.342 310.564 159.342 310.909C159.342 311.251 159.388 311.55 159.481 311.806C159.578 312.062 159.712 312.262 159.883 312.406C160.058 312.549 160.262 312.621 160.494 312.621Z" fill="#EFEFEF"/>
<path d="M166.178 311.081H612.527" stroke="#EFEFEF" stroke-width="0.895833"/>
<path d="M152.325 347.762C152.096 347.762 151.882 347.721 151.684 347.64C151.487 347.558 151.316 347.444 151.172 347.296C151.028 347.145 150.922 346.966 150.852 346.761L151.335 346.563C151.417 346.78 151.545 346.949 151.719 347.069C151.894 347.19 152.096 347.25 152.325 347.25C152.504 347.25 152.663 347.215 152.802 347.145C152.942 347.075 153.051 346.974 153.129 346.842C153.21 346.71 153.251 346.551 153.251 346.365C153.251 346.175 153.21 346.015 153.129 345.887C153.051 345.755 152.942 345.654 152.802 345.584C152.663 345.515 152.502 345.48 152.319 345.48C152.261 345.48 152.197 345.484 152.127 345.491C152.061 345.499 152.005 345.511 151.958 345.526L151.836 345.264L152.995 343.849H151.073V343.354H153.641V343.832L152.535 345.194L152.5 345.043C152.76 345.051 152.989 345.111 153.187 345.223C153.385 345.336 153.54 345.489 153.653 345.683C153.765 345.874 153.821 346.097 153.821 346.353C153.821 346.617 153.757 346.856 153.629 347.069C153.501 347.283 153.325 347.452 153.099 347.576C152.874 347.7 152.616 347.762 152.325 347.762ZM156.281 347.762C155.935 347.762 155.633 347.669 155.372 347.483C155.116 347.293 154.916 347.031 154.773 346.697C154.629 346.359 154.557 345.967 154.557 345.52C154.557 345.074 154.629 344.684 154.773 344.35C154.916 344.012 155.116 343.75 155.372 343.564C155.629 343.378 155.929 343.284 156.275 343.284C156.62 343.284 156.921 343.378 157.178 343.564C157.434 343.75 157.634 344.012 157.777 344.35C157.925 344.684 157.999 345.074 157.999 345.52C157.999 345.967 157.927 346.359 157.783 346.697C157.639 347.034 157.438 347.296 157.178 347.483C156.921 347.669 156.622 347.762 156.281 347.762ZM156.281 347.232C156.514 347.232 156.716 347.162 156.886 347.023C157.057 346.879 157.189 346.679 157.282 346.423C157.379 346.167 157.428 345.866 157.428 345.52C157.428 345.175 157.379 344.874 157.282 344.618C157.189 344.362 157.055 344.164 156.881 344.024C156.71 343.884 156.508 343.814 156.275 343.814C156.042 343.814 155.84 343.884 155.669 344.024C155.499 344.164 155.365 344.362 155.268 344.618C155.174 344.874 155.128 345.175 155.128 345.52C155.128 345.862 155.174 346.161 155.268 346.417C155.365 346.673 155.499 346.873 155.669 347.017C155.844 347.161 156.048 347.232 156.281 347.232ZM160.494 347.762C160.149 347.762 159.846 347.669 159.586 347.483C159.33 347.293 159.13 347.031 158.986 346.697C158.843 346.359 158.771 345.967 158.771 345.52C158.771 345.074 158.843 344.684 158.986 344.35C159.13 344.012 159.33 343.75 159.586 343.564C159.842 343.378 160.143 343.284 160.489 343.284C160.834 343.284 161.135 343.378 161.391 343.564C161.647 343.75 161.847 344.012 161.991 344.35C162.138 344.684 162.212 345.074 162.212 345.52C162.212 345.967 162.14 346.359 161.997 346.697C161.853 347.034 161.651 347.296 161.391 347.483C161.135 347.669 160.836 347.762 160.494 347.762ZM160.494 347.232C160.727 347.232 160.929 347.162 161.1 347.023C161.271 346.879 161.403 346.679 161.496 346.423C161.593 346.167 161.642 345.866 161.642 345.52C161.642 345.175 161.593 344.874 161.496 344.618C161.403 344.362 161.269 344.164 161.094 344.024C160.923 343.884 160.722 343.814 160.489 343.814C160.256 343.814 160.054 343.884 159.883 344.024C159.712 344.164 159.578 344.362 159.481 344.618C159.388 344.874 159.342 345.175 159.342 345.52C159.342 345.862 159.388 346.161 159.481 346.417C159.578 346.673 159.712 346.873 159.883 347.017C160.058 347.161 160.262 347.232 160.494 347.232Z" fill="#EFEFEF"/>
<path d="M166.178 345.692H612.527" stroke="#EFEFEF" stroke-width="0.895833"/>
<path d="M150.996 382.305V381.909L152.195 380.61C152.432 380.358 152.62 380.15 152.76 379.987C152.904 379.824 153.009 379.679 153.075 379.55C153.141 379.422 153.174 379.286 153.174 379.143C153.174 378.906 153.104 378.724 152.964 378.595C152.824 378.467 152.64 378.403 152.411 378.403C152.178 378.403 151.98 378.471 151.817 378.607C151.654 378.739 151.541 378.927 151.479 379.172L150.961 379.038C151.011 378.805 151.104 378.603 151.24 378.432C151.376 378.262 151.545 378.13 151.747 378.036C151.949 377.943 152.17 377.897 152.411 377.897C152.675 377.897 152.906 377.949 153.104 378.054C153.305 378.155 153.463 378.297 153.575 378.479C153.692 378.661 153.75 378.873 153.75 379.114C153.75 379.273 153.717 379.428 153.651 379.58C153.585 379.731 153.488 379.892 153.36 380.063C153.232 380.23 153.065 380.424 152.859 380.645L151.788 381.81H153.843V382.305H150.996ZM156.281 382.375C155.935 382.375 155.633 382.281 155.372 382.095C155.116 381.905 154.916 381.643 154.773 381.309C154.629 380.971 154.557 380.579 154.557 380.133C154.557 379.686 154.629 379.296 154.773 378.962C154.916 378.625 155.116 378.363 155.372 378.176C155.629 377.99 155.929 377.897 156.275 377.897C156.62 377.897 156.921 377.99 157.178 378.176C157.434 378.363 157.634 378.625 157.777 378.962C157.925 379.296 157.999 379.686 157.999 380.133C157.999 380.579 157.927 380.971 157.783 381.309C157.639 381.647 157.438 381.909 157.178 382.095C156.921 382.281 156.622 382.375 156.281 382.375ZM156.281 381.845C156.514 381.845 156.716 381.775 156.886 381.635C157.057 381.491 157.189 381.291 157.282 381.035C157.379 380.779 157.428 380.478 157.428 380.133C157.428 379.787 157.379 379.486 157.282 379.23C157.189 378.974 157.055 378.776 156.881 378.636C156.71 378.496 156.508 378.427 156.275 378.427C156.042 378.427 155.84 378.496 155.669 378.636C155.499 378.776 155.365 378.974 155.268 379.23C155.174 379.486 155.128 379.787 155.128 380.133C155.128 380.474 155.174 380.773 155.268 381.029C155.365 381.286 155.499 381.486 155.669 381.629C155.844 381.773 156.048 381.845 156.281 381.845ZM160.494 382.375C160.149 382.375 159.846 382.281 159.586 382.095C159.33 381.905 159.13 381.643 158.986 381.309C158.843 380.971 158.771 380.579 158.771 380.133C158.771 379.686 158.843 379.296 158.986 378.962C159.13 378.625 159.33 378.363 159.586 378.176C159.842 377.99 160.143 377.897 160.489 377.897C160.834 377.897 161.135 377.99 161.391 378.176C161.647 378.363 161.847 378.625 161.991 378.962C162.138 379.296 162.212 379.686 162.212 380.133C162.212 380.579 162.14 380.971 161.997 381.309C161.853 381.647 161.651 381.909 161.391 382.095C161.135 382.281 160.836 382.375 160.494 382.375ZM160.494 381.845C160.727 381.845 160.929 381.775 161.1 381.635C161.271 381.491 161.403 381.291 161.496 381.035C161.593 380.779 161.642 380.478 161.642 380.133C161.642 379.787 161.593 379.486 161.496 379.23C161.403 378.974 161.269 378.776 161.094 378.636C160.923 378.496 160.722 378.427 160.489 378.427C160.256 378.427 160.054 378.496 159.883 378.636C159.712 378.776 159.578 378.974 159.481 379.23C159.388 379.486 159.342 379.787 159.342 380.133C159.342 380.474 159.388 380.773 159.481 381.029C159.578 381.286 159.712 381.486 159.883 381.629C160.058 381.773 160.262 381.845 160.494 381.845Z" fill="#EFEFEF"/>
<path d="M166.178 380.305H612.527" stroke="#EFEFEF" stroke-width="0.895833"/>
<path d="M152.98 416.917V413.074H152.159V412.579H153.557V416.917H152.98ZM156.281 416.987C155.935 416.987 155.633 416.894 155.372 416.707C155.116 416.517 154.916 416.255 154.773 415.921C154.629 415.584 154.557 415.191 154.557 414.745C154.557 414.299 154.629 413.908 154.773 413.575C154.916 413.237 155.116 412.975 155.372 412.789C155.629 412.602 155.929 412.509 156.275 412.509C156.62 412.509 156.921 412.602 157.178 412.789C157.434 412.975 157.634 413.237 157.777 413.575C157.925 413.908 157.999 414.299 157.999 414.745C157.999 415.191 157.927 415.584 157.783 415.921C157.639 416.259 157.438 416.521 157.178 416.707C156.921 416.894 156.622 416.987 156.281 416.987ZM156.281 416.457C156.514 416.457 156.716 416.387 156.886 416.247C157.057 416.104 157.189 415.904 157.282 415.648C157.379 415.391 157.428 415.091 157.428 414.745C157.428 414.4 157.379 414.099 157.282 413.842C157.189 413.586 157.055 413.388 156.881 413.249C156.71 413.109 156.508 413.039 156.275 413.039C156.042 413.039 155.84 413.109 155.669 413.249C155.499 413.388 155.365 413.586 155.268 413.842C155.174 414.099 155.128 414.4 155.128 414.745C155.128 415.087 155.174 415.386 155.268 415.642C155.365 415.898 155.499 416.098 155.669 416.242C155.844 416.385 156.048 416.457 156.281 416.457ZM160.494 416.987C160.149 416.987 159.846 416.894 159.586 416.707C159.33 416.517 159.13 416.255 158.986 415.921C158.843 415.584 158.771 415.191 158.771 414.745C158.771 414.299 158.843 413.908 158.986 413.575C159.13 413.237 159.33 412.975 159.586 412.789C159.842 412.602 160.143 412.509 160.489 412.509C160.834 412.509 161.135 412.602 161.391 412.789C161.647 412.975 161.847 413.237 161.991 413.575C162.138 413.908 162.212 414.299 162.212 414.745C162.212 415.191 162.14 415.584 161.997 415.921C161.853 416.259 161.651 416.521 161.391 416.707C161.135 416.894 160.836 416.987 160.494 416.987ZM160.494 416.457C160.727 416.457 160.929 416.387 161.1 416.247C161.271 416.104 161.403 415.904 161.496 415.648C161.593 415.391 161.642 415.091 161.642 414.745C161.642 414.4 161.593 414.099 161.496 413.842C161.403 413.586 161.269 413.388 161.094 413.249C160.923 413.109 160.722 413.039 160.489 413.039C160.256 413.039 160.054 413.109 159.883 413.249C159.712 413.388 159.578 413.586 159.481 413.842C159.388 414.099 159.342 414.4 159.342 414.745C159.342 415.087 159.388 415.386 159.481 415.642C159.578 415.898 159.712 416.098 159.883 416.242C160.058 416.385 160.262 416.457 160.494 416.457Z" fill="#EFEFEF"/>
<path d="M166.178 414.917H612.527" stroke="#EFEFEF" stroke-width="0.895833"/>
<path opacity="0.6" d="M181.929 358.587L166.24 389.753V418.917H612.24V307.941L602.155 287.683L588.708 300.928L576.941 305.603L562.373 310.668L552.848 307.941H546.125L524.273 297.812L502.981 314.953L485.052 312.616L474.966 317.291H464.321L457.037 327.031L447.512 324.303L433.504 339.108L423.979 330.926L412.213 324.303L397.645 305.603L372.431 320.408L342.735 300.928L312.479 351.574L295.11 330.926H286.705L277.18 327.031L267.094 330.926L257.009 327.031L238.519 361.703H227.313L223.951 367.547L216.667 371.053H207.703L195.376 356.639L188.652 358.587H181.929Z" fill="url(#paint0_linear_14831_4304)"/>
<path d="M166.24 389.502L181.929 358.412H188.652L195.376 356.469L207.703 370.848H216.667L223.951 367.35L227.313 361.521H238.519L257.009 326.934L267.095 330.82L277.18 326.934L286.705 330.82H295.11L312.479 351.417L342.735 300.896L372.431 320.327L397.645 305.559L412.213 324.213L423.979 330.82L433.504 338.981L447.512 324.213L457.037 326.934L464.321 317.218H474.966L485.052 312.555L502.981 314.886L524.273 297.787L546.125 307.891H552.848L562.373 310.611L576.941 305.559L588.708 300.896L602.155 287.683L612.24 307.891" stroke="#DCDCDC" stroke-width="0.671875" stroke-linecap="round"/>
<rect x="166.178" y="422.5" width="30.0104" height="7.16667" rx="1.79167" fill="white" fill-opacity="0.08"/>
<rect x="374.459" y="422.5" width="30.0104" height="7.16667" rx="1.79167" fill="white" fill-opacity="0.08"/>
<rect x="582.295" y="422.5" width="30.0104" height="7.16667" rx="1.79167" fill="white" fill-opacity="0.08"/>
</g>
<g clip-path="url(#clip4_14831_4304)">
<path d="M133.928 121.646C133.928 116.698 137.939 112.688 142.886 112.688H239.3C244.248 112.688 248.258 116.698 248.258 121.646V170.917C248.258 175.864 244.248 179.875 239.3 179.875H142.886C137.939 179.875 133.928 175.864 133.928 170.917V121.646Z" fill="#F7F7F7"/>
<path d="M134.428 121.646C134.428 116.974 138.215 113.188 142.886 113.188H239.3C243.972 113.188 247.758 116.974 247.758 121.646V170.917C247.758 175.588 243.972 179.375 239.3 179.375H142.886C138.215 179.375 134.428 175.588 134.428 170.917V121.646Z" stroke="#222222" stroke-opacity="0.05"/>
<rect x="144.678" y="125.229" width="30.0104" height="7.16667" rx="1.79167" fill="#EFEFEF"/>
<path fill-rule="evenodd" clip-rule="evenodd" d="M228.997 127.917C228.503 127.917 228.102 128.318 228.102 128.813C228.102 129.308 228.503 129.709 228.997 129.709C229.492 129.709 229.893 129.308 229.893 128.813C229.893 128.318 229.492 127.917 228.997 127.917ZM231.237 128.813C231.237 128.318 231.638 127.917 232.133 127.917C232.628 127.917 233.029 128.318 233.029 128.813C233.029 129.308 232.628 129.709 232.133 129.709C231.638 129.709 231.237 129.308 231.237 128.813ZM234.372 128.813C234.372 128.318 234.773 127.917 235.268 127.917C235.763 127.917 236.164 128.318 236.164 128.813C236.164 129.308 235.763 129.709 235.268 129.709C234.773 129.709 234.372 129.308 234.372 128.813Z" fill="#EFEFEF"/>
<rect opacity="0.6" x="144.678" y="141.354" width="38.5208" height="15.6771" rx="3.58333" fill="#DCDCDC"/>
<rect opacity="0.3" x="144.678" y="161.959" width="20.1562" height="7.16667" rx="1.79167" fill="#DCDCDC"/>
<path d="M259.008 121.646C259.008 116.698 263.019 112.688 267.966 112.688H364.38C369.328 112.688 373.339 116.698 373.339 121.646V170.917C373.339 175.864 369.328 179.875 364.38 179.875H267.966C263.019 179.875 259.008 175.864 259.008 170.917V121.646Z" fill="#F7F7F7"/>
<path d="M259.508 121.646C259.508 116.974 263.295 113.188 267.966 113.188H364.38C369.052 113.188 372.839 116.974 372.839 121.646V170.917C372.839 175.588 369.052 179.375 364.38 179.375H267.966C263.295 179.375 259.508 175.588 259.508 170.917V121.646Z" stroke="#222222" stroke-opacity="0.05"/>
<rect x="269.758" y="125.229" width="30.0104" height="7.16667" rx="1.79167" fill="#EFEFEF"/>
<path fill-rule="evenodd" clip-rule="evenodd" d="M354.077 127.917C353.583 127.917 353.182 128.318 353.182 128.813C353.182 129.308 353.583 129.709 354.077 129.709C354.572 129.709 354.973 129.308 354.973 128.813C354.973 128.318 354.572 127.917 354.077 127.917ZM356.317 128.813C356.317 128.318 356.718 127.917 357.213 127.917C357.708 127.917 358.109 128.318 358.109 128.813C358.109 129.308 357.708 129.709 357.213 129.709C356.718 129.709 356.317 129.308 356.317 128.813ZM359.452 128.813C359.452 128.318 359.854 127.917 360.348 127.917C360.843 127.917 361.244 128.318 361.244 128.813C361.244 129.308 360.843 129.709 360.348 129.709C359.854 129.709 359.452 129.308 359.452 128.813Z" fill="#EFEFEF"/>
<rect opacity="0.6" x="269.758" y="141.354" width="38.5208" height="15.6771" rx="3.58333" fill="#DCDCDC"/>
<rect opacity="0.3" x="269.758" y="161.959" width="20.1562" height="7.16667" rx="1.79167" fill="#DCDCDC"/>
<path d="M384.09 121.646C384.09 116.698 388.101 112.688 393.048 112.688H489.462C494.41 112.688 498.421 116.698 498.421 121.646V170.917C498.421 175.864 494.41 179.875 489.462 179.875H393.048C388.101 179.875 384.09 175.864 384.09 170.917V121.646Z" fill="#F7F7F7"/>
<path d="M384.59 121.646C384.59 116.974 388.377 113.188 393.048 113.188H489.462C494.134 113.188 497.921 116.974 497.921 121.646V170.917C497.921 175.588 494.134 179.375 489.462 179.375H393.048C388.377 179.375 384.59 175.588 384.59 170.917V121.646Z" stroke="#222222" stroke-opacity="0.05"/>
<rect x="394.84" y="125.229" width="30.0104" height="7.16667" rx="1.79167" fill="#EFEFEF"/>
<path fill-rule="evenodd" clip-rule="evenodd" d="M479.16 127.917C478.665 127.917 478.264 128.318 478.264 128.813C478.264 129.308 478.665 129.709 479.16 129.709C479.654 129.709 480.055 129.308 480.055 128.813C480.055 128.318 479.654 127.917 479.16 127.917ZM481.399 128.813C481.399 128.318 481.8 127.917 482.295 127.917C482.79 127.917 483.191 128.318 483.191 128.813C483.191 129.308 482.79 129.709 482.295 129.709C481.8 129.709 481.399 129.308 481.399 128.813ZM484.535 128.813C484.535 128.318 484.936 127.917 485.43 127.917C485.925 127.917 486.326 128.318 486.326 128.813C486.326 129.308 485.925 129.709 485.43 129.709C484.936 129.709 484.535 129.308 484.535 128.813Z" fill="#EFEFEF"/>
<rect opacity="0.6" x="394.84" y="141.354" width="38.5208" height="15.6771" rx="3.58333" fill="#DCDCDC"/>
<rect opacity="0.3" x="394.84" y="161.959" width="20.1562" height="7.16667" rx="1.79167" fill="#DCDCDC"/>
<path d="M509.17 121.646C509.17 116.698 513.181 112.688 518.128 112.688H614.542C619.49 112.688 623.501 116.698 623.501 121.646V170.917C623.501 175.864 619.49 179.875 614.542 179.875H518.128C513.181 179.875 509.17 175.864 509.17 170.917V121.646Z" fill="#F7F7F7"/>
<path d="M509.67 121.646C509.67 116.974 513.457 113.188 518.128 113.188H614.542C619.214 113.188 623.001 116.974 623.001 121.646V170.917C623.001 175.588 619.214 179.375 614.542 179.375H518.128C513.457 179.375 509.67 175.588 509.67 170.917V121.646Z" stroke="#222222" stroke-opacity="0.05"/>
<rect x="519.92" y="125.229" width="30.0104" height="7.16667" rx="1.79167" fill="#EFEFEF"/>
<path fill-rule="evenodd" clip-rule="evenodd" d="M604.24 127.917C603.745 127.917 603.344 128.318 603.344 128.813C603.344 129.308 603.745 129.709 604.24 129.709C604.734 129.709 605.135 129.308 605.135 128.813C605.135 128.318 604.734 127.917 604.24 127.917ZM606.479 128.813C606.479 128.318 606.88 127.917 607.375 127.917C607.87 127.917 608.271 128.318 608.271 128.813C608.271 129.308 607.87 129.709 607.375 129.709C606.88 129.709 606.479 129.308 606.479 128.813ZM609.615 128.813C609.615 128.318 610.016 127.917 610.51 127.917C611.005 127.917 611.406 128.318 611.406 128.813C611.406 129.308 611.005 129.709 610.51 129.709C610.016 129.709 609.615 129.308 609.615 128.813Z" fill="#EFEFEF"/>
<rect opacity="0.6" x="519.92" y="141.354" width="38.5208" height="15.6771" rx="3.58333" fill="#DCDCDC"/>
<rect opacity="0.3" x="519.92" y="161.959" width="20.1562" height="7.16667" rx="1.79167" fill="#DCDCDC"/>
</g>
<g clip-path="url(#clip5_14831_4304)">
<mask id="path-49-inside-1_14831_4304" fill="white">
<path d="M133.928 74.6147H623.501V96.5627H133.928V74.6147Z"/>
</mask>
<path d="M623.501 95.8908H133.928V97.2345H623.501V95.8908Z" fill="#EFEFEF" mask="url(#path-49-inside-1_14831_4304)"/>
<mask id="path-51-inside-2_14831_4304" fill="white">
<path d="M133.928 74.6147H180.063V96.5627H133.928V74.6147Z"/>
</mask>
<path d="M180.063 95.8908H133.928V97.2345H180.063V95.8908Z" fill="#DCDCDC" mask="url(#path-51-inside-2_14831_4304)"/>
<rect opacity="0.3" x="144.678" y="79.9897" width="24.6354" height="7.16667" rx="1.79167" fill="#DCDCDC"/>
<rect x="190.812" y="79.9897" width="30.0104" height="7.16667" rx="1.79167" fill="#F7F7F7"/>
<rect x="242.324" y="79.9897" width="30.0104" height="7.16667" rx="1.79167" fill="#F7F7F7"/>
</g>
<rect x="133.928" y="47.8647" width="79" height="16" rx="4" fill="#EFEFEF"/>
</g>
<g clip-path="url(#clip6_14831_4304)">
<rect x="21.5" y="47.8647" width="90.9271" height="23" rx="3.58333" fill="#F7F7F7"/>
<rect opacity="0.3" width="11" height="11" rx="5.5" transform="matrix(-1 0 0 1 40.5 53.8647)" fill="#222222" fill-opacity="0.3"/>
<rect x="47.5" y="55.7812" width="30.0104" height="7.16667" rx="1.79167" fill="#EFEFEF"/>
<rect opacity="0.3" width="11" height="11" rx="5.5" transform="matrix(-1 0 0 1 40.5 76.8647)" fill="#222222" fill-opacity="0.3"/>
<rect x="47.5" y="78.7812" width="30.0104" height="7.16667" rx="1.79167" fill="#EFEFEF"/>
<rect opacity="0.3" width="11" height="11" rx="5.5" transform="matrix(-1 0 0 1 40.5 99.8652)" fill="#222222" fill-opacity="0.3"/>
<rect x="47.5" y="101.781" width="30.0104" height="7.16667" rx="1.79167" fill="#EFEFEF"/>
<rect opacity="0.3" width="11" height="11" rx="5.5" transform="matrix(-1 0 0 1 40.5 122.865)" fill="#222222" fill-opacity="0.3"/>
<rect x="47.5" y="124.782" width="30.0104" height="7.16667" rx="1.79167" fill="#EFEFEF"/>
<rect opacity="0.3" width="11" height="11" rx="5.5" transform="matrix(-1 0 0 1 40.5 145.865)" fill="#222222" fill-opacity="0.3"/>
<rect x="47.5" y="147.782" width="30.0104" height="7.16667" rx="1.79167" fill="#EFEFEF"/>
<rect opacity="0.3" width="11" height="11" rx="5.5" transform="matrix(-1 0 0 1 40.5 168.865)" fill="#222222" fill-opacity="0.3"/>
<rect x="47.5" y="170.782" width="30.0104" height="7.16667" rx="1.79167" fill="#EFEFEF"/>
</g>
</g>
<rect opacity="0.3" width="18.3646" height="18.3646" rx="9.18229" transform="matrix(-1 0 0 1 39.8652 14.333)" fill="#DCDCDC"/>
<rect x="54.1973" y="19.9321" width="30.0104" height="7.16667" rx="1.79167" fill="#EFEFEF"/>
<path d="M87.793 22.6196L89.5846 24.4113L91.3763 22.6196" stroke="#EFEFEF" stroke-width="0.671875" stroke-linecap="round" stroke-linejoin="round"/>
<rect x="107.5" y="19.9321" width="30.0104" height="7.16667" rx="1.79167" fill="#EFEFEF"/>
<path d="M141.096 22.6196L142.887 24.4113L144.679 22.6196" stroke="#EFEFEF" stroke-width="0.671875" stroke-linecap="round" stroke-linejoin="round"/>
<rect x="160.801" y="19.9321" width="30.0104" height="7.16667" rx="1.79167" fill="#EFEFEF"/>
<path d="M194.393 22.6196L196.184 24.4113L197.976 22.6196" stroke="#EFEFEF" stroke-width="0.671875" stroke-linecap="round" stroke-linejoin="round"/>
<rect x="214.104" y="19.9321" width="30.0104" height="7.16667" rx="1.79167" fill="#EFEFEF"/>
<path d="M247.699 22.6196L249.491 24.4113L251.283 22.6196" stroke="#EFEFEF" stroke-width="0.671875" stroke-linecap="round" stroke-linejoin="round"/>
<rect x="476.584" y="19.9321" width="30.0104" height="7.16667" rx="1.79167" fill="#EFEFEF"/>
<path d="M520.928 16.3491V30.6825" stroke="#EFEFEF" stroke-width="0.671875"/>
<rect x="535.262" y="19.9321" width="30.0104" height="7.16667" rx="1.79167" fill="#EFEFEF"/>
<g opacity="0.3">
<rect x="579.605" y="15.4531" width="43.8958" height="16.125" rx="4.03125" fill="#DCDCDC"/>
</g>
</g>
<rect x="0.5" y="0.5" width="644" height="447" rx="7.5" stroke="#222222" stroke-opacity="0.05"/>
<defs>
<linearGradient id="paint0_linear_14831_4304" x1="389.24" y1="288" x2="389.24" y2="419" gradientUnits="userSpaceOnUse">
<stop stop-color="#222222" stop-opacity="0.5"/>
<stop offset="1" stop-color="white" stop-opacity="0.2"/>
</linearGradient>
<clipPath id="clip0_14831_4304">
<rect width="645" height="448" rx="8" fill="white"/>
</clipPath>
<clipPath id="clip1_14831_4304">
<rect width="602" height="397.302" fill="white" transform="translate(21.5 47.8647)"/>
</clipPath>
<clipPath id="clip2_14831_4304">
<rect width="489.573" height="397.302" fill="white" transform="translate(133.928 47.8647)"/>
</clipPath>
<clipPath id="clip3_14831_4304">
<rect width="489.573" height="259.917" fill="white" transform="translate(133.928 185.25)"/>
</clipPath>
<clipPath id="clip4_14831_4304">
<rect width="489.573" height="77.9375" fill="white" transform="translate(133.928 107.312)"/>
</clipPath>
<clipPath id="clip5_14831_4304">
<rect width="489.573" height="43.4479" fill="white" transform="translate(133.928 63.8647)"/>
</clipPath>
<clipPath id="clip6_14831_4304">
<rect width="90.9271" height="138" fill="white" transform="translate(21.5 47.8647)"/>
</clipPath>
</defs>
</svg>
